<svg version="1.1" id="Layer_1" xmlns="http://www.w3.org/2000/svg" xmlns:xlink="http://www.w3.org/1999/xlink" x="0" y="0" viewBox="0 0 151.5 199.2" style="enable-background:new 0 0 151.5 199.2" xml:space="preserve"><style>.st3{fill:url(#SVGID_00000036947560095515730880000011235785297594197436_)}.st4{fill:url(#SVGID_00000044862253161279707480000007404718847334162101_)}.st5{fill:url(#SVGID_00000072246918874506867480000008681912597374580617_)}.st6{fill:url(#SVGID_00000038371436592167581750000002434532758644790153_)}.st7{fill:url(#SVGID_00000032637605574855743390000015104073128398035848_)}.st8{fill:url(#SVGID_00000052800283708166058420000006824312295798225326_)}.st9{fill:url(#SVGID_00000021821525394151428080000008230015019605830788_)}.st10{fill:url(#SVGID_00000124124016928997111730000001418551799311122586_)}.st11{fill:url(#SVGID_00000179625155011072633180000016127584432556942492_)}.st12{fill:url(#SVGID_00000009576813613535837700000009465270448425042584_)}.st13{fill:url(#SVGID_00000011740634009179316930000002858583306135723942_)}.st14{clip-path:url(#SVGID_00000170989656392513165130000007761102166081382804_);fill:url(#SVGID_00000005952873451217843570000013974236802155083650_)}</style><linearGradient id="SVGID_1_" gradientUnits="userSpaceOnUse" x1="0" y1="172.9" x2="18.467" y2="172.9"><stop offset="0" style="stop-color:#91632a"/><stop offset="1" style="stop-color:#cda355"/></linearGradient><path d="m7.9 164.5-3 .4c.4 1.5 1.1 3.3 2 5.4l1.6 3.7c.3.8.9 1.9 1.5 3.2.3-.5.6-1.1 1-1.9.4-.8.7-1.5 1-2.2l1.8-4.2c.7-1.7 1.2-3 1.4-4l-3.4-.4v-.1h6.7v.1l-2.1.4c-.4.7-1.1 2-1.9 4.1l-3.8 9.1c-.5 1.3-1 2.4-1.2 3.3h-.3c-.4-1.2-.9-2.4-1.4-3.5l-3.6-8.4c-.7-1.6-1.4-3.1-2.3-4.6l-2-.4v-.1h7.9v.1zm-5.3.3L9.1 180l.4-.9-6.1-14.2h-.8z" style="fill:url(#SVGID_1_)"/><linearGradient id="SVGID_00000108293119512512045370000000923799450594901638_" gradientUnits="userSpaceOnUse" x1="22.356" y1="172.668" x2="30.899" y2="172.668"><stop offset="0" style="stop-color:#91632a"/><stop offset="1" style="stop-color:#cda355"/></linearGradient><path style="fill:url(#SVGID_00000108293119512512045370000000923799450594901638_)" d="M30.9 180.9h-8.5v-.1l2.8-.4c.1-.9.2-2.1.3-3.4.1-1.3.1-2.6.1-3.9v-1.9c0-2.6-.1-4.7-.3-6.3l-2.8-.4v-.1H31v.1l-2.8.4c-.1.7-.1 1.4-.2 2s-.1 1.3-.1 2.1v4.9c0 .5 0 1.2.1 2.3 0 1 .1 1.9.1 2.6.1.7.1 1.3.2 1.6l2.8.4v.1zm-5.1-16.1v15.7h.8v-15.7h-.8z"/><linearGradient id="SVGID_00000000194247349489645480000005429113069590986913_" gradientUnits="userSpaceOnUse" x1="35.862" y1="172.629" x2="51.491" y2="172.629"><stop offset="0" style="stop-color:#91632a"/><stop offset="1" style="stop-color:#cda355"/></linearGradient><path style="fill:url(#SVGID_00000000194247349489645480000005429113069590986913_)" d="m51.5 177.9-1.7 3.1c-.7-.1-1.2-.1-1.6-.1-.4 0-.9 0-1.6.1-.7.1-1.2.1-1.6.1-1.5 0-2.9-.2-4-.7-1.2-.5-2.1-1.1-2.9-1.9-.8-.8-1.3-1.7-1.7-2.7-.4-1-.6-1.9-.6-2.9 0-1.3.2-2.4.7-3.5.4-1.1 1-2 1.8-2.8.8-.8 1.7-1.4 2.8-1.8 1.1-.4 2.2-.6 3.4-.6H46.4c1 .1 1.8.1 2.3.1 1.2 0 2 0 2.4-.1l.1 3.8h-.1l-.8-2.5c-.2-.1-.6-.1-1.2-.2s-1.1-.2-1.7-.2c-.5-.1-1.1-.1-1.7-.1-1.6 0-2.9.3-4 .9-1.1.6-1.9 1.5-2.5 2.6-.6 1.1-.8 2.5-.8 3.9 0 1.2.2 2.2.6 3.2.4 1 1 1.8 1.7 2.5s1.5 1.2 2.4 1.6c.9.4 1.9.5 2.9.5s2-.2 2.8-.5c.9-.3 1.7-1 2.4-1.9l.3.1zm-5.1-13.5H45c-1.3 0-2.5.2-3.6.7-1.1.4-2 1-2.8 1.8-.8.8-1.3 1.7-1.7 2.7s-.6 2.1-.6 3.2.2 2.1.6 3c.4 1 1 1.8 1.8 2.6.8.7 1.7 1.3 2.8 1.8 1.1.4 2.3.6 3.7.6h1.2v-.1c-1.5 0-2.8-.2-4-.6-1.2-.4-2.1-1-2.9-1.8-.8-.8-1.3-1.6-1.7-2.6-.4-1-.6-1.9-.6-2.9s.2-1.9.5-2.9c.3-.9.8-1.8 1.5-2.6s1.5-1.4 2.6-1.9 2.3-.7 3.8-.7h.8v-.3z"/><linearGradient id="SVGID_00000089545081880181253320000008457897461036865670_" gradientUnits="userSpaceOnUse" x1="56.025" y1="172.561" x2="71.948" y2="172.561"><stop offset="0" style="stop-color:#91632a"/><stop offset="1" style="stop-color:#cda355"/></linearGradient><path style="fill:url(#SVGID_00000089545081880181253320000008457897461036865670_)" d="M58.3 164.4h9.8c.6 0 1.1 0 1.6-.1s1.1-.1 1.9-.2l.3 3.7h-.1l-.8-2.7c-.7-.1-1.4-.2-2.1-.2-.6 0-1.2 0-1.8.1-.5.1-1.1.2-1.7.3-.1.7-.1 1.4-.1 2 0 .7-.1 1.3-.1 1.8v4.9c0 1 0 2.1.1 3.3.1 1.2.2 2.2.2 2.9l2.8.4v.1h-8.5v-.1l2.7-.4c.2-1.7.4-3.7.4-6v-4.1c0-.8 0-1.7-.1-2.5 0-.8-.1-1.6-.2-2.3-.4-.1-.9-.2-1.5-.3-.6-.1-1.1-.1-1.6-.1-.8 0-1.6.1-2.4.2l-.8 2.7H56l.2-3.7c.2 0 .6.1 1 .1.5.2.8.2 1.1.2zm4.9.4v15.7h.8v-15.7h-.8z"/><linearGradient id="SVGID_00000050639078262895414800000006222510599025080767_" gradientUnits="userSpaceOnUse" x1="76.651" y1="172.606" x2="94.959" y2="172.606"><stop offset="0" style="stop-color:#91632a"/><stop offset="1" style="stop-color:#cda355"/></linearGradient><path style="fill:url(#SVGID_00000050639078262895414800000006222510599025080767_)" d="M85.7 164.2c1.6 0 3 .3 4.2.8 1.2.5 2.1 1.2 2.9 2.1.7.9 1.3 1.8 1.6 2.8.3 1 .5 1.9.5 2.8 0 1-.2 2-.6 3-.4 1-1 1.9-1.8 2.7-.8.8-1.7 1.5-2.9 2-1.1.5-2.4.7-3.8.7-2 0-3.7-.4-5.2-1.3-1.4-.9-2.4-2-3.1-3.3-.7-1.3-1-2.6-1-3.8 0-1.1.2-2.2.6-3.2.4-1 1-1.9 1.9-2.8.8-.8 1.8-1.4 2.9-1.9 1.3-.4 2.5-.6 3.8-.6zm-.4.4v-.1c-1.1 0-2.1.2-3.1.7-1 .4-1.9 1-2.6 1.8-.8.8-1.4 1.6-1.8 2.6-.4 1-.6 2-.6 3.1 0 1.3.4 2.6 1.1 3.8.7 1.2 1.7 2.2 3 3 1.3.8 2.6 1.2 4.1 1.2v-.1c-1.5-.1-2.8-.6-3.9-1.4-1.1-.8-2-1.8-2.6-2.9-.6-1.2-.9-2.4-.9-3.6 0-1 .2-2 .5-2.9.3-.9.8-1.8 1.5-2.5.6-.7 1.4-1.3 2.3-1.8.9-.5 1.9-.8 3-.9zm.5.3c-1.2 0-2.2.3-3.2.9-1 .6-1.8 1.5-2.4 2.6-.6 1.2-.9 2.5-.9 4.1 0 1.7.3 3.1 1 4.3.6 1.2 1.5 2 2.5 2.6s2 .8 3.1.8c.9 0 1.7-.2 2.5-.5s1.5-.8 2.1-1.5c.6-.6 1.1-1.4 1.4-2.4.3-.9.5-2 .5-3.1 0-1.6-.2-2.8-.5-3.8-.4-.9-.9-1.8-1.6-2.5-.6-.6-1.3-1-2-1.3-.9 0-1.7-.2-2.5-.2zm.6-.4v.1c.7.1 1.5.2 2.2.5.7.3 1.4.7 2.1 1.4.6.6 1.2 1.4 1.6 2.5.4 1 .6 2.3.6 3.8 0 1-.1 1.9-.3 2.7-.2.9-.6 1.7-1.1 2.4-.5.7-1.2 1.3-2 1.8s-1.8.8-3 .9v.1c1 0 1.9-.3 2.7-.6.9-.4 1.6-.9 2.3-1.6.7-.7 1.2-1.5 1.6-2.5.4-1 .6-2.1.6-3.3 0-1.3-.2-2.5-.6-3.5-.4-1-1-1.9-1.7-2.5-.7-.7-1.5-1.2-2.3-1.5-.9-.5-1.8-.7-2.7-.7z"/><linearGradient id="SVGID_00000063622655913014702300000007176390139078486960_" gradientUnits="userSpaceOnUse" x1="99.548" y1="172.668" x2="116.907" y2="172.668"><stop offset="0" style="stop-color:#91632a"/><stop offset="1" style="stop-color:#cda355"/></linearGradient><path style="fill:url(#SVGID_00000063622655913014702300000007176390139078486960_)" d="M115 179.9c-.3-.3-.6-.7-.9-1.1-.3-.5-.8-1.1-1.3-1.9-.6-.8-1-1.5-1.3-2-.3-.5-.6-.8-.9-1.1-.3-.3-.8-.6-1.3-.8.5-.1 1.1-.3 1.6-.6s.9-.8 1.3-1.3c.3-.6.5-1.2.5-1.9 0-.5-.2-1.1-.5-1.9-.3-.7-.9-1.4-1.7-1.9-.8-.6-2-.8-3.4-.8h-7.4v.1l2.7.4c.1.7.2 1.6.2 2.7.1 1.2.1 2.2.1 3.1v3.5c0 .6 0 1.6-.1 3s-.2 2.4-.3 3.2l-2.7.4v.1h8.4v-.1l-2.8-.4c-.2-1.4-.3-2.6-.3-3.5V175c0-.5 0-.9.1-1.4 0-.1 0-.2-.1-.4v-.5c0-.5-.1-1.1-.1-1.7v-2c0-.5 0-1.2.1-2s.1-1.4.2-1.9c.2-.1.6-.1 1-.1.5 0 .9.1 1.4.3.5.2.9.5 1.3.8.4.4.7.8.9 1.3.2.5.4 1.1.4 1.7 0 .6-.1 1.2-.4 1.7-.3.5-.7 1-1.3 1.3-.2.1-.5.2-.8.3v1.1c.2.1.3.3.5.4.2.2.5.6.9 1.1.4.5.8 1.2 1.4 2 .5.8.9 1.4 1.2 1.7.3.3.5.7.8.9.6.7 1.5 1 2.6 1h2v-.1c-.7.3-1.3 0-2-.6zm-11.3.6h-.8v-15.7h.8v15.7zm6.8-11.2c0-.7-.2-1.4-.5-2.1-.3-.7-.8-1.3-1.5-1.8s-1.6-.7-2.6-.8v-.1h.6c.6 0 1.2.1 1.7.3.6.2 1.1.5 1.6.9s.8.8 1.1 1.4c.3.6.4 1.2.4 1.9 0 .9-.3 1.7-.8 2.3-.5.6-1.1 1.1-1.9 1.3h-.1c1.4-.7 2-1.8 2-3.3zm4 11.2c-.6 0-1.2-.2-1.6-.5-.5-.4-1-1-1.6-1.8l-2.5-3.6c-.4-.6-.8-1-1.2-1.3v-.1c.5.1 1 .3 1.4.6.4.3.8.8 1.2 1.4l2 2.8c.9 1.4 1.7 2.1 2.3 2.3v.2z"/><linearGradient id="SVGID_00000165193329253921246560000014044943808688161686_" gradientUnits="userSpaceOnUse" x1="120.751" y1="172.668" x2="129.295" y2="172.668"><stop offset="0" style="stop-color:#91632a"/><stop offset="1" style="stop-color:#cda355"/></linearGradient><path style="fill:url(#SVGID_00000165193329253921246560000014044943808688161686_)" d="M129.3 180.9h-8.5v-.1l2.8-.4c.1-.9.2-2.1.3-3.4.1-1.3.1-2.6.1-3.9v-1.9c0-2.6-.1-4.7-.3-6.3l-2.8-.4v-.1h8.5v.1l-2.8.4c-.1.7-.1 1.4-.2 2 0 .6-.1 1.3-.1 2.1v4.9c0 .5 0 1.2.1 2.3 0 1 .1 1.9.1 2.6.1.7.1 1.3.2 1.6l2.8.4v.1zm-5.1-16.1v15.7h.8v-15.7h-.8z"/><linearGradient id="SVGID_00000106122102073407442700000015587125727547657092_" gradientUnits="userSpaceOnUse" x1="132.968" y1="172.583" x2="151.548" y2="172.583"><stop offset="0" style="stop-color:#91632a"/><stop offset="1" style="stop-color:#cda355"/></linearGradient><path style="fill:url(#SVGID_00000106122102073407442700000015587125727547657092_)" d="M149.7 180.4c-.8-1.5-1.6-3-2.2-4.5l-4.9-11.7h-.9l-5.2 13.3c-.4 1.1-.9 2-1.4 2.9l-2.1.4v.1h6.3v-.1l-3-.4c.1-.4.2-.8.3-1.3.2-.5.3-1 .5-1.5s.4-1.1.7-1.9c0-.2.1-.4.2-.5v-.2c.1-.2.3-.7.6-1.5s.6-1.5.8-2.1c.3-.7.6-1.4.9-2.2.3-.8.6-1.4.8-1.8.6 1 1.2 2.3 1.9 3.9.6 1.5 1.1 2.6 1.4 3.4.1.1.1.2.1.3 0 .1.1.2.1.3.1.1.1.2.1.4.4.6.7 1.4 1 2.2.3.9.5 1.7.6 2.4l-3.1.4v.1h8v-.1l-1.5-.3zm-2.3.1-5.9-14 .4-.9 6.2 15h-.7z"/><g><linearGradient id="SVGID_00000163787942932183444240000018389871025840678280_" gradientUnits="userSpaceOnUse" x1="48.593" y1="192.733" x2="60.582" y2="192.733"><stop offset="0" style="stop-color:#91632a"/><stop offset="1" style="stop-color:#cda355"/></linearGradient><path style="fill:url(#SVGID_00000163787942932183444240000018389871025840678280_)" d="m60.6 196.8-1.3 2.4c-.6 0-1-.1-1.2-.1-.3 0-.7 0-1.2.1-.5 0-.9.1-1.2.1-1.2 0-2.2-.2-3.1-.5-.9-.4-1.6-.8-2.2-1.5-.6-.6-1-1.3-1.3-2-.3-.7-.4-1.5-.4-2.3 0-1 .2-1.9.5-2.7.3-.8.8-1.5 1.4-2.1.6-.6 1.3-1 2.1-1.4.8-.3 1.7-.5 2.6-.5h1.6c.8.1 1.4.1 1.8.1.9 0 1.5 0 1.8-.1l.1 2.9h-.1l-.6-1.9c-.2 0-.5-.1-.9-.2s-.9-.1-1.3-.2c-.4 0-.9-.1-1.3-.1-1.2 0-2.2.2-3.1.7-.8.5-1.5 1.2-1.9 2-.4.9-.6 1.9-.6 3 0 .9.2 1.7.5 2.4s.7 1.4 1.3 1.9c.5.5 1.2.9 1.9 1.2.7.3 1.4.4 2.2.4.8 0 1.5-.1 2.2-.4.5-.1 1.1-.6 1.7-1.2zm-3.9-10.3h-1c-1 0-1.9.2-2.8.5-.8.3-1.6.8-2.1 1.4-.6.6-1 1.3-1.3 2.1-.3.8-.5 1.6-.5 2.5 0 .8.2 1.6.5 2.3.3.7.8 1.4 1.4 2 .6.6 1.3 1 2.2 1.3.8.3 1.8.5 2.8.5h.9v-.1c-1.1 0-2.2-.1-3.1-.5-.9-.3-1.6-.8-2.2-1.4-.6-.6-1-1.2-1.3-2-.3-.7-.4-1.5-.4-2.3 0-.8.1-1.5.4-2.2.2-.7.6-1.4 1.1-2 .5-.6 1.2-1.1 2-1.5.8-.4 1.8-.5 2.9-.5h.6v-.1z"/><linearGradient id="SVGID_00000036222549853090075580000002399706137825311893_" gradientUnits="userSpaceOnUse" x1="64.006" y1="192.763" x2="70.559" y2="192.763"><stop offset="0" style="stop-color:#91632a"/><stop offset="1" style="stop-color:#cda355"/></linearGradient><path style="fill:url(#SVGID_00000036222549853090075580000002399706137825311893_)" d="M70.6 199.1H64v-.1l2.1-.3c.1-.7.2-1.6.2-2.6s.1-2 .1-3v-1.5c0-2-.1-3.6-.3-4.8l-2.1-.3v-.1h6.6v.1l-2.2.3c-.1.6-.1 1.1-.1 1.5 0 .5-.1 1-.1 1.6v5.4c0 .8.1 1.5.1 2 0 .6.1 1 .1 1.2l2.2.6zm-4-12.3v12h.6v-12h-.6z"/><linearGradient id="SVGID_00000103260705667735040280000009590798002932018320_" gradientUnits="userSpaceOnUse" x1="73.516" y1="192.681" x2="85.73" y2="192.681"><stop offset="0" style="stop-color:#91632a"/><stop offset="1" style="stop-color:#cda355"/></linearGradient><path style="fill:url(#SVGID_00000103260705667735040280000009590798002932018320_)" d="M75.3 186.4h8.8c.4 0 .9-.1 1.5-.1l.2 2.8h-.1l-.6-2c-.5-.1-1.1-.1-1.6-.1s-.9 0-1.3.1-.8.1-1.3.3c0 .5-.1 1.1-.1 1.6s0 1-.1 1.4v3.8c0 .8 0 1.6.1 2.5.1.9.1 1.7.2 2.2l2.1.3v.1h-6.5v-.3l2.1-.3c.2-1.3.3-2.8.3-4.6v-5c0-.6-.1-1.2-.1-1.8-.3-.1-.7-.2-1.2-.2-.4-.1-.9-.1-1.3-.1-.6 0-1.3.1-1.9.2l-.6 2.1h-.1l.2-2.8c.2 0 .4 0 .8.1 0-.2.3-.2.5-.2zm3.7.3v12h.6v-12H79z"/><linearGradient id="SVGID_00000037687613939387487210000002638599279280225419_" gradientUnits="userSpaceOnUse" x1="88.773" y1="192.763" x2="102.955" y2="192.763"><stop offset="0" style="stop-color:#91632a"/><stop offset="1" style="stop-color:#cda355"/></linearGradient><path style="fill:url(#SVGID_00000037687613939387487210000002638599279280225419_)" d="m90.5 186.8-1.8-.3v-.1h6.7v.1l-2.6.3c.4.9.9 1.9 1.6 3 .7 1.1 1.3 2.1 1.9 2.8.6-.7 1.3-1.6 2.1-2.8a50 50 0 0 0 1.8-2.9l-2.5-.3v-.1h5v.1l-1.5.3c-.3.4-.7.8-1 1.2-.3.4-.7 1-1.2 1.7s-.9 1.3-1.2 1.7c-.3.4-.7 1.1-1.3 2 0 .7-.1 1.5-.1 2.4 0 1.2.1 2.2.3 2.9l2.1.3v.1h-6.6v-.2l2.1-.3c.1-.4.2-.9.2-1.5.1-.6.1-1.2.1-1.8 0-.4 0-1.1-.1-2-.3-.6-.8-1.3-1.3-2.2-.5-.8-1.1-1.7-1.6-2.5-.1-.7-.6-1.3-1.1-1.9zm4.7 12h.6v-5.4l-4.1-6.6H91l4.2 6.7v5.3z"/></g><g><defs><path id="SVGID_00000165212575862182573810000003783398878868938134_" d="M151.5 0H0v151.4h33v-42.3l7.8-6.8.3 49.1h9.1V111l-9.4-8.7-.3-19 17.2-15.9v84h8.4V20.7l23.7 23V69L77.1 81.2v70.2h12.7V69l16.4 15.2v18.1l-7.9 7.9v41.2h7.3l.4-31.1.2-18 .8.8 8.3 8v40.3h36.2z"/></defs><clipPath id="SVGID_00000118392452253471545060000016479122076185847721_"><use xlink:href="#SVGID_00000165212575862182573810000003783398878868938134_" style="overflow:visible"/></clipPath><linearGradient id="SVGID_00000004524021167554737470000011097228133876193458_" gradientUnits="userSpaceOnUse" x1="-78.871" y1="201.179" x2="182.201" y2="-10.616"><stop offset="0" style="stop-color:#926435"/><stop offset="1" style="stop-color:#e1b17f"/></linearGradient><path style="clip-path:url(#SVGID_00000118392452253471545060000016479122076185847721_);fill:url(#SVGID_00000004524021167554737470000011097228133876193458_)" d="M0 0h151.5v151.4H0z"/></g></svg>